<mxfile host="app.diagrams.net" modified="2023-10-08T02:11:07.417Z" agent="Mozilla/5.0 (Macintosh; Intel Mac OS X 10_15_7) AppleWebKit/537.36 (KHTML, like Gecko) Chrome/117.0.0.0 Safari/537.36" etag="MPQ9HH_PNOnSLZ3o767S" version="22.0.4" type="device" pages="2">
  <diagram name="Page-1" id="uiF0gc2Piye6KWy6ewNl">
    <mxGraphModel dx="1735" dy="993" grid="1" gridSize="10" guides="1" tooltips="1" connect="1" arrows="1" fold="1" page="1" pageScale="1" pageWidth="850" pageHeight="1100" math="0" shadow="0">
      <root>
        <mxCell id="0" />
        <mxCell id="1" parent="0" />
        <mxCell id="R34a3R9MmZGjfHTMqxVD-3" value="" style="verticalLabelPosition=bottom;verticalAlign=top;html=1;shadow=0;dashed=0;strokeWidth=1;shape=mxgraph.android.phone2;strokeColor=#666666;fillColor=#f5f5f5;fontColor=#333333;" parent="1" vertex="1">
          <mxGeometry x="1140" y="600" width="200" height="390" as="geometry" />
        </mxCell>
        <mxCell id="jHiGcaoDQTZ17rqV0CVn-51" value="" style="verticalLabelPosition=bottom;verticalAlign=top;html=1;shadow=0;dashed=0;strokeWidth=1;shape=mxgraph.android.phone2;strokeColor=#666666;fillColor=#f5f5f5;fontColor=#333333;fillStyle=auto;gradientColor=none;" vertex="1" parent="1">
          <mxGeometry x="300" y="100" width="200" height="390" as="geometry" />
        </mxCell>
        <mxCell id="jHiGcaoDQTZ17rqV0CVn-52" value="" style="verticalLabelPosition=bottom;verticalAlign=top;html=1;shadow=0;dashed=0;strokeWidth=1;shape=mxgraph.android.phone2;strokeColor=#666666;direction=south;fillColor=#f5f5f5;fontColor=#333333;" vertex="1" parent="1">
          <mxGeometry x="669" y="450" width="390" height="200" as="geometry" />
        </mxCell>
        <mxCell id="jHiGcaoDQTZ17rqV0CVn-53" value="Play" style="rounded=1;fillColor=#0057D8;align=center;strokeColor=none;html=1;whiteSpace=wrap;fontColor=#ffffff;fontSize=12;sketch=0;" vertex="1" parent="1">
          <mxGeometry x="357" y="213.44" width="86" height="33" as="geometry" />
        </mxCell>
        <mxCell id="jHiGcaoDQTZ17rqV0CVn-54" style="edgeStyle=orthogonalEdgeStyle;rounded=0;orthogonalLoop=1;jettySize=auto;html=1;entryX=0.625;entryY=-0.008;entryDx=0;entryDy=0;entryPerimeter=0;exitX=1;exitY=0.5;exitDx=0;exitDy=0;" edge="1" parent="1" source="jHiGcaoDQTZ17rqV0CVn-90">
          <mxGeometry relative="1" as="geometry">
            <mxPoint x="1244" y="597" as="targetPoint" />
          </mxGeometry>
        </mxCell>
        <mxCell id="jHiGcaoDQTZ17rqV0CVn-55" value="High Scores" style="rounded=1;fillColor=#0057D8;align=center;strokeColor=none;html=1;whiteSpace=wrap;fontColor=#ffffff;fontSize=12;sketch=0;" vertex="1" parent="1">
          <mxGeometry x="357" y="253.44" width="86" height="33" as="geometry" />
        </mxCell>
        <mxCell id="jHiGcaoDQTZ17rqV0CVn-56" value="Exit" style="rounded=1;fillColor=#0057D8;align=center;strokeColor=none;html=1;whiteSpace=wrap;fontColor=#ffffff;fontSize=12;sketch=0;" vertex="1" parent="1">
          <mxGeometry x="357" y="330" width="86" height="33" as="geometry" />
        </mxCell>
        <mxCell id="jHiGcaoDQTZ17rqV0CVn-57" value="" style="shape=image;html=1;verticalAlign=top;verticalLabelPosition=bottom;labelBackgroundColor=#ffffff;imageAspect=0;aspect=fixed;image=https://cdn1.iconfinder.com/data/icons/space-and-ships-1/512/Prancheta_14-128.png;rotation=90;" vertex="1" parent="1">
          <mxGeometry x="749" y="511" width="78" height="78" as="geometry" />
        </mxCell>
        <mxCell id="jHiGcaoDQTZ17rqV0CVn-58" value="" style="shape=image;html=1;verticalAlign=top;verticalLabelPosition=bottom;labelBackgroundColor=#ffffff;imageAspect=0;aspect=fixed;image=https://cdn1.iconfinder.com/data/icons/space-and-ships-1/512/Prancheta_19-128.png;rotation=-90;" vertex="1" parent="1">
          <mxGeometry x="889" y="486" width="128" height="128" as="geometry" />
        </mxCell>
        <mxCell id="jHiGcaoDQTZ17rqV0CVn-59" value="Up" style="rounded=1;html=1;shadow=0;dashed=0;whiteSpace=wrap;fontSize=10;fillColor=#E6E6E6;align=center;strokeColor=#B3B3B3;fontColor=#333333;" vertex="1" parent="1">
          <mxGeometry x="709" y="460" width="50" height="60" as="geometry" />
        </mxCell>
        <mxCell id="jHiGcaoDQTZ17rqV0CVn-60" value="Down" style="rounded=1;html=1;shadow=0;dashed=0;whiteSpace=wrap;fontSize=10;fillColor=#E6E6E6;align=center;strokeColor=#B3B3B3;fontColor=#333333;" vertex="1" parent="1">
          <mxGeometry x="709" y="580" width="50" height="56.88" as="geometry" />
        </mxCell>
        <mxCell id="jHiGcaoDQTZ17rqV0CVn-61" value="Shoot" style="rounded=1;html=1;shadow=0;dashed=0;whiteSpace=wrap;fontSize=10;fillColor=#E6E6E6;align=center;strokeColor=#B3B3B3;fontColor=#333333;" vertex="1" parent="1">
          <mxGeometry x="709" y="526.56" width="50" height="46.88" as="geometry" />
        </mxCell>
        <mxCell id="jHiGcaoDQTZ17rqV0CVn-62" value="" style="html=1;verticalLabelPosition=bottom;align=center;labelBackgroundColor=#ffffff;verticalAlign=top;strokeWidth=2;strokeColor=#666666;shadow=0;dashed=0;shape=mxgraph.ios7.icons.settings;fillColor=#f5f5f5;fontColor=#333333;" vertex="1" parent="1">
          <mxGeometry x="987" y="460" width="30" height="30" as="geometry" />
        </mxCell>
        <mxCell id="jHiGcaoDQTZ17rqV0CVn-63" value="" style="html=1;verticalLabelPosition=bottom;align=center;labelBackgroundColor=#ffffff;verticalAlign=top;strokeWidth=2;strokeColor=#666666;shadow=0;dashed=0;shape=mxgraph.ios7.icons.pause;pointerEvents=1;fillColor=#f5f5f5;fontColor=#333333;" vertex="1" parent="1">
          <mxGeometry x="959" y="463" width="15" height="24" as="geometry" />
        </mxCell>
        <mxCell id="jHiGcaoDQTZ17rqV0CVn-64" value="" style="shape=rect;strokeColor=none;fillColor=none;labelPosition=center;verticalLabelPosition=bottom;align=center;verticalAlign=top;" vertex="1" parent="1">
          <mxGeometry x="320" y="420" width="160" height="14" as="geometry" />
        </mxCell>
        <mxCell id="jHiGcaoDQTZ17rqV0CVn-65" value="" style="shape=mxgraph.ios7.misc.volume_down;fillColor=#666666;strokeColor=none;html=1;" vertex="1" parent="jHiGcaoDQTZ17rqV0CVn-64">
          <mxGeometry y="0.5" width="6" height="8" relative="1" as="geometry">
            <mxPoint y="-4" as="offset" />
          </mxGeometry>
        </mxCell>
        <mxCell id="jHiGcaoDQTZ17rqV0CVn-66" value="" style="shape=mxgraph.ios7.misc.volume_up;fillColor=#666666;strokeColor=none;html=1;" vertex="1" parent="jHiGcaoDQTZ17rqV0CVn-64">
          <mxGeometry x="1" y="0.5" width="14" height="14" relative="1" as="geometry">
            <mxPoint x="-14" y="-7" as="offset" />
          </mxGeometry>
        </mxCell>
        <mxCell id="jHiGcaoDQTZ17rqV0CVn-67" value="" style="html=1;strokeWidth=1;shadow=0;dashed=0;shape=mxgraph.ios7ui.slider;barPos=60;strokeColor=#0680FF;opacity=100;fillColor=#FFFFFF;handleSize=14;labelPosition=center;verticalLabelPosition=bottom;align=center;verticalAlign=top;" vertex="1" parent="jHiGcaoDQTZ17rqV0CVn-64">
          <mxGeometry x="18" width="116" height="14" as="geometry" />
        </mxCell>
        <mxCell id="jHiGcaoDQTZ17rqV0CVn-68" value="Sound" style="text;html=1;strokeColor=none;fillColor=none;align=center;verticalAlign=middle;whiteSpace=wrap;rounded=0;" vertex="1" parent="1">
          <mxGeometry x="370" y="390" width="60" height="30" as="geometry" />
        </mxCell>
        <mxCell id="jHiGcaoDQTZ17rqV0CVn-69" style="edgeStyle=orthogonalEdgeStyle;rounded=0;orthogonalLoop=1;jettySize=auto;html=1;entryX=0.577;entryY=1.001;entryDx=0;entryDy=0;entryPerimeter=0;" edge="1" parent="1" source="jHiGcaoDQTZ17rqV0CVn-53" target="jHiGcaoDQTZ17rqV0CVn-52">
          <mxGeometry relative="1" as="geometry" />
        </mxCell>
        <mxCell id="jHiGcaoDQTZ17rqV0CVn-70" value="Play takes the user&lt;br&gt;to the main screen&lt;br&gt;where the game will&lt;br&gt;take place." style="edgeLabel;html=1;align=center;verticalAlign=middle;resizable=0;points=[];" vertex="1" connectable="0" parent="jHiGcaoDQTZ17rqV0CVn-69">
          <mxGeometry x="0.0047" relative="1" as="geometry">
            <mxPoint as="offset" />
          </mxGeometry>
        </mxCell>
        <mxCell id="jHiGcaoDQTZ17rqV0CVn-71" style="edgeStyle=orthogonalEdgeStyle;rounded=0;orthogonalLoop=1;jettySize=auto;html=1;entryX=0.625;entryY=-0.012;entryDx=0;entryDy=0;entryPerimeter=0;" edge="1" parent="1" source="jHiGcaoDQTZ17rqV0CVn-62">
          <mxGeometry relative="1" as="geometry">
            <mxPoint x="1244" y="595" as="targetPoint" />
          </mxGeometry>
        </mxCell>
        <mxCell id="jHiGcaoDQTZ17rqV0CVn-72" value="User can get to this screen by clicking settings button on main menu&lt;br&gt;or clicking the icon &quot;settings&quot; in the game screen." style="edgeLabel;html=1;align=center;verticalAlign=middle;resizable=0;points=[];" vertex="1" connectable="0" parent="jHiGcaoDQTZ17rqV0CVn-71">
          <mxGeometry x="0.6469" y="2" relative="1" as="geometry">
            <mxPoint as="offset" />
          </mxGeometry>
        </mxCell>
        <mxCell id="jHiGcaoDQTZ17rqV0CVn-73" value="Profile" style="html=1;whiteSpace=wrap;strokeColor=none;fillColor=#0079D6;labelPosition=center;verticalLabelPosition=middle;verticalAlign=top;align=center;fontSize=12;outlineConnect=0;spacingTop=-6;fontColor=#FFFFFF;sketch=0;shape=mxgraph.sitemap.profile;" vertex="1" parent="1">
          <mxGeometry x="759" y="460" width="48" height="30" as="geometry" />
        </mxCell>
        <mxCell id="jHiGcaoDQTZ17rqV0CVn-74" value="" style="html=1;shadow=0;dashed=0;shape=mxgraph.bootstrap.rrect;rSize=5;fillColor=#E9ECEF;strokeColor=none;" vertex="1" parent="1">
          <mxGeometry x="767" y="616.88" width="252" height="20" as="geometry" />
        </mxCell>
        <mxCell id="jHiGcaoDQTZ17rqV0CVn-75" value="25%" style="html=1;shadow=0;dashed=0;shape=mxgraph.bootstrap.leftButton;rSize=5;fillColor=#0085FC;strokeColor=none;fontColor=#ffffff;resizeHeight=1;" vertex="1" parent="jHiGcaoDQTZ17rqV0CVn-74">
          <mxGeometry width="120" height="20" relative="1" as="geometry" />
        </mxCell>
        <mxCell id="jHiGcaoDQTZ17rqV0CVn-76" value="Score: 1234" style="text;html=1;strokeColor=none;fillColor=none;align=center;verticalAlign=middle;whiteSpace=wrap;rounded=0;" vertex="1" parent="1">
          <mxGeometry x="807" y="460" width="60" height="30" as="geometry" />
        </mxCell>
        <mxCell id="jHiGcaoDQTZ17rqV0CVn-77" value="" style="shape=rect;strokeColor=none;fillColor=none;labelPosition=center;verticalLabelPosition=bottom;align=center;verticalAlign=top;" vertex="1" parent="1">
          <mxGeometry x="1244" y="794" width="75" height="14" as="geometry" />
        </mxCell>
        <mxCell id="jHiGcaoDQTZ17rqV0CVn-78" value="" style="shape=mxgraph.ios7.misc.volume_down;fillColor=#666666;strokeColor=none;html=1;" vertex="1" parent="jHiGcaoDQTZ17rqV0CVn-77">
          <mxGeometry y="0.5" width="6" height="8" relative="1" as="geometry">
            <mxPoint y="-4" as="offset" />
          </mxGeometry>
        </mxCell>
        <mxCell id="jHiGcaoDQTZ17rqV0CVn-79" value="" style="shape=mxgraph.ios7.misc.volume_up;fillColor=#666666;strokeColor=none;html=1;" vertex="1" parent="jHiGcaoDQTZ17rqV0CVn-77">
          <mxGeometry x="1" y="0.5" width="14" height="14" relative="1" as="geometry">
            <mxPoint x="-14" y="-7" as="offset" />
          </mxGeometry>
        </mxCell>
        <mxCell id="jHiGcaoDQTZ17rqV0CVn-80" value="" style="html=1;strokeWidth=1;shadow=0;dashed=0;shape=mxgraph.ios7ui.slider;barPos=60;strokeColor=#0680FF;opacity=100;fillColor=#FFFFFF;handleSize=14;labelPosition=center;verticalLabelPosition=bottom;align=center;verticalAlign=top;" vertex="1" parent="jHiGcaoDQTZ17rqV0CVn-77">
          <mxGeometry x="8.4375" width="54.37499999999999" height="14" as="geometry" />
        </mxCell>
        <mxCell id="jHiGcaoDQTZ17rqV0CVn-81" value="Volume" style="text;html=1;strokeColor=none;fillColor=none;align=center;verticalAlign=middle;whiteSpace=wrap;rounded=0;" vertex="1" parent="1">
          <mxGeometry x="1154" y="786" width="60" height="30" as="geometry" />
        </mxCell>
        <mxCell id="jHiGcaoDQTZ17rqV0CVn-82" value="" style="html=1;verticalLabelPosition=bottom;labelBackgroundColor=#ffffff;verticalAlign=top;shadow=0;dashed=0;strokeWidth=1;shape=mxgraph.ios7ui.onOffButton;buttonState=on;strokeColor=#38D145;strokeColor2=#aaaaaa;fillColor=#38D145;fillColor2=#ffffff;" vertex="1" parent="1">
          <mxGeometry x="1275.5" y="847.5" width="43.5" height="15" as="geometry" />
        </mxCell>
        <mxCell id="jHiGcaoDQTZ17rqV0CVn-83" value="Sound" style="text;html=1;strokeColor=none;fillColor=none;align=center;verticalAlign=middle;whiteSpace=wrap;rounded=0;" vertex="1" parent="1">
          <mxGeometry x="1154" y="840" width="60" height="30" as="geometry" />
        </mxCell>
        <mxCell id="jHiGcaoDQTZ17rqV0CVn-84" value="Profile Info" style="text;html=1;strokeColor=none;fillColor=none;align=center;verticalAlign=middle;whiteSpace=wrap;rounded=0;" vertex="1" parent="1">
          <mxGeometry x="1144" y="680" width="80" height="30" as="geometry" />
        </mxCell>
        <mxCell id="jHiGcaoDQTZ17rqV0CVn-85" value="Score History&amp;nbsp;" style="text;html=1;strokeColor=none;fillColor=none;align=center;verticalAlign=middle;whiteSpace=wrap;rounded=0;" vertex="1" parent="1">
          <mxGeometry x="1154" y="890" width="90" height="30" as="geometry" />
        </mxCell>
        <mxCell id="jHiGcaoDQTZ17rqV0CVn-86" value="" style="html=1;verticalLabelPosition=bottom;labelBackgroundColor=#ffffff;verticalAlign=top;shadow=0;dashed=0;strokeWidth=1;shape=mxgraph.ios7ui.onOffButton;buttonState=on;strokeColor=#38D145;strokeColor2=#aaaaaa;fillColor=#38D145;fillColor2=#ffffff;" vertex="1" parent="1">
          <mxGeometry x="1275.5" y="897.5" width="43.5" height="15" as="geometry" />
        </mxCell>
        <mxCell id="jHiGcaoDQTZ17rqV0CVn-87" value="Difficulty" style="strokeWidth=1;shadow=0;dashed=0;align=center;html=1;shape=mxgraph.mockup.forms.comboBox;strokeColor=#999999;fillColor=#ddeeff;align=left;fillColor2=#aaddff;mainText=;fontColor=#666666;fontSize=17;spacingLeft=3;" vertex="1" parent="1">
          <mxGeometry x="1239.38" y="730" width="84.25" height="20" as="geometry" />
        </mxCell>
        <mxCell id="jHiGcaoDQTZ17rqV0CVn-88" value="Level" style="text;html=1;strokeColor=none;fillColor=none;align=center;verticalAlign=middle;whiteSpace=wrap;rounded=0;" vertex="1" parent="1">
          <mxGeometry x="1154" y="725" width="60" height="30" as="geometry" />
        </mxCell>
        <mxCell id="jHiGcaoDQTZ17rqV0CVn-89" value="" style="rounded=0;whiteSpace=wrap;html=1;" vertex="1" parent="1">
          <mxGeometry x="1229" y="680" width="90" height="20" as="geometry" />
        </mxCell>
        <mxCell id="jHiGcaoDQTZ17rqV0CVn-90" value="Settings" style="rounded=1;fillColor=#0057D8;align=center;strokeColor=none;html=1;whiteSpace=wrap;fontColor=#ffffff;fontSize=12;sketch=0;" vertex="1" parent="1">
          <mxGeometry x="357" y="293.44" width="86" height="33" as="geometry" />
        </mxCell>
        <mxCell id="jHiGcaoDQTZ17rqV0CVn-91" value="" style="verticalLabelPosition=bottom;verticalAlign=top;html=1;shadow=0;dashed=0;strokeWidth=1;shape=mxgraph.android.phone2;strokeColor=#666666;fillColor=#f5f5f5;fontColor=#333333;fillStyle=auto;gradientColor=none;" vertex="1" parent="1">
          <mxGeometry x="324" y="560" width="200" height="390" as="geometry" />
        </mxCell>
        <mxCell id="jHiGcaoDQTZ17rqV0CVn-92" style="edgeStyle=orthogonalEdgeStyle;rounded=0;orthogonalLoop=1;jettySize=auto;html=1;entryX=-0.025;entryY=0.542;entryDx=0;entryDy=0;entryPerimeter=0;" edge="1" parent="1" source="jHiGcaoDQTZ17rqV0CVn-55" target="jHiGcaoDQTZ17rqV0CVn-91">
          <mxGeometry relative="1" as="geometry">
            <Array as="points">
              <mxPoint x="149" y="277" />
              <mxPoint x="149" y="771" />
            </Array>
          </mxGeometry>
        </mxCell>
        <mxCell id="jHiGcaoDQTZ17rqV0CVn-93" value="This button will take the user to the scores screen." style="edgeLabel;html=1;align=center;verticalAlign=middle;resizable=0;points=[];" vertex="1" connectable="0" parent="jHiGcaoDQTZ17rqV0CVn-92">
          <mxGeometry x="0.0715" y="1" relative="1" as="geometry">
            <mxPoint as="offset" />
          </mxGeometry>
        </mxCell>
        <mxCell id="jHiGcaoDQTZ17rqV0CVn-94" value="" style="html=1;shadow=0;dashed=0;shape=mxgraph.bootstrap.rrect;rSize=5;strokeColor=#DFDFDF;html=1;whiteSpace=wrap;fillColor=#FFFFFF;fontColor=#000000;" vertex="1" parent="1">
          <mxGeometry x="339" y="610" width="170" height="280" as="geometry" />
        </mxCell>
        <mxCell id="jHiGcaoDQTZ17rqV0CVn-95" value="User1" style="strokeColor=inherit;fillColor=inherit;gradientColor=inherit;fontColor=inherit;html=1;shadow=0;dashed=0;shape=mxgraph.bootstrap.topButton;rSize=5;perimeter=none;whiteSpace=wrap;resizeWidth=1;align=left;spacing=10;" vertex="1" parent="jHiGcaoDQTZ17rqV0CVn-94">
          <mxGeometry width="170" height="40" relative="1" as="geometry" />
        </mxCell>
        <mxCell id="jHiGcaoDQTZ17rqV0CVn-96" value="1400" style="strokeColor=inherit;fillColor=inherit;gradientColor=inherit;fontColor=inherit;html=1;shadow=0;dashed=0;shape=mxgraph.bootstrap.rrect;rSize=8;fillColor=#0085FC;strokeColor=none;fontColor=#ffffff;whiteSpace=wrap;" vertex="1" parent="jHiGcaoDQTZ17rqV0CVn-95">
          <mxGeometry x="1" y="0.5" width="86" height="16" relative="1" as="geometry">
            <mxPoint x="-101" y="-8" as="offset" />
          </mxGeometry>
        </mxCell>
        <mxCell id="jHiGcaoDQTZ17rqV0CVn-97" value="User2" style="strokeColor=inherit;fillColor=inherit;gradientColor=inherit;fontColor=inherit;html=1;shadow=0;dashed=0;perimeter=none;whiteSpace=wrap;resizeWidth=1;align=left;spacing=10;" vertex="1" parent="jHiGcaoDQTZ17rqV0CVn-94">
          <mxGeometry width="170" height="40" relative="1" as="geometry">
            <mxPoint y="40" as="offset" />
          </mxGeometry>
        </mxCell>
        <mxCell id="jHiGcaoDQTZ17rqV0CVn-98" value="1000" style="strokeColor=inherit;fillColor=inherit;gradientColor=inherit;fontColor=inherit;html=1;shadow=0;dashed=0;shape=mxgraph.bootstrap.rrect;rSize=8;fillColor=#0085FC;strokeColor=none;fontColor=#ffffff;whiteSpace=wrap;" vertex="1" parent="jHiGcaoDQTZ17rqV0CVn-97">
          <mxGeometry x="1" y="0.5" width="81" height="16" relative="1" as="geometry">
            <mxPoint x="-99" y="-8" as="offset" />
          </mxGeometry>
        </mxCell>
        <mxCell id="jHiGcaoDQTZ17rqV0CVn-99" value="User3" style="strokeColor=inherit;fillColor=inherit;gradientColor=inherit;fontColor=inherit;html=1;shadow=0;dashed=0;shape=mxgraph.bootstrap.bottomButton;rSize=5;perimeter=none;whiteSpace=wrap;resizeWidth=1;resizeHeight=0;align=left;spacing=10;" vertex="1" parent="jHiGcaoDQTZ17rqV0CVn-94">
          <mxGeometry y="1" width="170" height="40" relative="1" as="geometry">
            <mxPoint y="-200" as="offset" />
          </mxGeometry>
        </mxCell>
        <mxCell id="jHiGcaoDQTZ17rqV0CVn-100" value="300" style="strokeColor=inherit;fillColor=inherit;gradientColor=inherit;fontColor=inherit;html=1;shadow=0;dashed=0;shape=mxgraph.bootstrap.rrect;rSize=8;fillColor=#0085FC;strokeColor=none;fontColor=#ffffff;whiteSpace=wrap;" vertex="1" parent="jHiGcaoDQTZ17rqV0CVn-99">
          <mxGeometry x="1" y="0.5" width="81" height="16" relative="1" as="geometry">
            <mxPoint x="-99" y="-8" as="offset" />
          </mxGeometry>
        </mxCell>
      </root>
    </mxGraphModel>
  </diagram>
  <diagram id="KKjJT0kQzFDKfv6nRNLj" name="Page-2">
    <mxGraphModel dx="954" dy="546" grid="1" gridSize="10" guides="1" tooltips="1" connect="1" arrows="1" fold="1" page="1" pageScale="1" pageWidth="850" pageHeight="1100" math="0" shadow="0">
      <root>
        <mxCell id="0" />
        <mxCell id="1" parent="0" />
      </root>
    </mxGraphModel>
  </diagram>
</mxfile>
